<?xml version="1.0" encoding="utf-8"?><svg version="1.1" id="Layer_1" xmlns="http://www.w3.org/2000/svg" xmlns:xlink="http://www.w3.org/1999/xlink" x="0px" y="0px" viewBox="0 0 205 89" style="enable-background:new 0 0 205 89;" xml:space="preserve">
<style type="text/css">
	.st0{fill:url(#SVGID_1_);}
	.st1{fill:#FFD384;}
	.st2{fill:url(#SVGID_2_);}
	.st3{fill:url(#SVGID_3_);}
	.st4{fill:url(#SVGID_4_);}
	.st5{fill:#34D0CD;}
	.st6{fill:#04A3FF;}
	.st7{fill:url(#SVGID_5_);}
	.st8{fill:#4DDCEA;}
	.st9{fill:#0030D0;}
	.st10{fill:#F3486B;}
	.st11{fill:#F4F3F3;}
	.st12{fill:#30A2C4;}
	.st13{fill:#E7A97A;}
	.st14{fill-rule:evenodd;clip-rule:evenodd;fill:#30A2C4;}
	.st15{fill:#FF0067;}
	.st16{fill:#F37A89;}
	.st17{fill:#A70E1F;}
	.st18{fill:#FFBA00;}
	.st19{fill:#D79A66;}
	.st20{fill:#C5C0BE;}
	.st21{fill:#F76B76;}
	.st22{fill:#B81C4F;}
	.st23{fill:url(#SVGID_6_);}
	.st24{fill:url(#SVGID_7_);}
	.st25{fill:url(#SVGID_8_);}
	.st26{fill:url(#SVGID_9_);}
	.st27{fill:url(#SVGID_10_);}
	.st28{fill-rule:evenodd;clip-rule:evenodd;fill:url(#SVGID_11_);}
	.st29{fill-rule:evenodd;clip-rule:evenodd;fill:#FFD384;}
	.st30{fill-rule:evenodd;clip-rule:evenodd;fill:url(#SVGID_12_);}
	.st31{fill:url(#SVGID_13_);}
	.st32{fill:url(#SVGID_14_);}
</style>
<linearGradient id="SVGID_1_" gradientUnits="userSpaceOnUse" x1="184.7169" y1="70.0868" x2="184.7169" y2="50.1352">
	<stop offset="0.2086" style="stop-color:#2EA3FF" />
	<stop offset="0.5528" style="stop-color:#34D0CD" />
</linearGradient>
<path class="st0" d="M167.1,67.2c1.6,0.1,2.2-0.1,3.6-0.4c0.9-0.2,2.5,0.4,3.2,0c0.8-0.3,0-1.2,0.9-1.1c-0.7,0,1.4,1.7,1.3,1.5  c1.8-9.6,16.1-9.2,17.3,0.5c1.2-0.7,1.4,0.2,2.4,0.4c0.8,0.1,1.5,0,2.3,0.1c0.5,0.1,1.8,1.5,2.4,1.1c1-0.6-0.7-1.1-0.7-1.1  c0-0.3,0.1-1.1,0.5-1.2c0.9-0.2,0.6,1,0.9,1.2c0.7,0.5,1.8,0.2,2.2,1.8c0.7-10.3-7.5-19.4-17.8-19.9c-10-0.5-18.8,7.2-19.6,17.2  C166.4,67.3,166.7,67.2,167.1,67.2z" />
<path class="st1" d="M171.3,72.1c-0.6-1-2.8,0.6-3.5,0.6c-0.6-0.1-1-0.9-1.5-0.9c-0.2,0-0.5,0.5-0.6,0.5c-0.8,0.1-1,0.4-1.9,0.4  c-0.6,0-1-0.3-1.6-0.3c-0.7,0.1-1.8,0.7-2.6,1c-1.4,0.3-4.6,0.7-2,1.4c1.5,0.4,3.5,0,5.1,0c-3.2,4.3-10.5,4.9-14,0.6  c-1.4,1.7-4.3,1.1-6.2,0.9c-1.5-0.2-2.6-0.1-4.2-0.4c3.8,10.1,16.1,14.1,25.5,9.4c-0.1,0.3,0.1,0.7,0,1c2.1,0,4.3-0.1,6.4-0.1  c1.9,0,1.8,0.2,1.8-1.6c0-2.5,0-5,0-7.4c0-1.1,0.2-2.4,0-3.5C171.7,72.4,171.7,72.8,171.3,72.1z" />
<path class="st1" d="M201.5,74.6c-0.4-0.2-0.9-0.4-1.3-0.7c-0.5,0-1,0.2-1.4,0.5c-1.1,0.1-1.1-0.6-2-0.9c-1.4-0.5-0.5,0.5-1.7,0.3  c-1.1-0.2-1.5-0.8-2.5-1.3c-3.4,7.2-14.1,6.3-16.4-1.3c-0.8,1.2-4,0.5-5.2,0.6c-0.9,0.1-2.4,0.7-3.2,0.7c-0.5,0-1.2-1.2-1.6-0.8  c-1,0.8,2.6,7.1,3.2,7.9c1.5,2.2,3.5,4,5.8,5.4c10.3,6.1,24,0.7,27.4-10.8C202.3,74.4,201.9,74.6,201.5,74.6z" />
<linearGradient id="SVGID_2_" gradientUnits="userSpaceOnUse" x1="126.5512" y1="71.5534" x2="126.5512" y2="51.2265">
	<stop offset="0.2086" style="stop-color:#2EA3FF" />
	<stop offset="0.5528" style="stop-color:#34D0CD" />
</linearGradient>
<path class="st2" d="M141.7,51.2h-9.3c0,6.3,0,12.5,0,18.8c-2.1-3.2-4.2-6.5-6.2-9.7c-1.4-2.2-2.9-4.5-4.3-6.7c-0.4-0.6-1-2-1.6-2.4  h-8.9c-0.2,0.2-0.2,0.5-0.3,1.3c-0.3,4.3,0,8.7,0,13c1.5-1.4,1.1,0.5,1.7,0.8c0.9,0.4,1.7-0.1,2.6,0.2c0.8,0.3,1,0.9,2.1,1  c0.9,0.1,1.6-0.7,1.7,0.5c0.2-0.2,1.1-1.3,1.3-1.3c1.3-0.2-0.2,0.6,0.7,0.9c0.8,0.3,1.3,0.6,2.3,1c0.6,0.3,0.7,0.6,1.4,0.8  c0.5,0.1,1-0.4,1.5-0.3c0.7,0.1,1.3,0.7,1.9,0.9c0.8,0.2,1.5,0.1,2.3,0.3c0.7,0.2,0.8,0.6,1.6,0.6c0.6,0,1.3-0.4,2-0.4  c0.4,0,0.6,0.6,1.2,0.6c0.6,0,1.1-0.7,1.6-0.6c0.5,0,0.9,0.5,1.1,0.6c0.3,0,0.8,0,1.2,0c0.3,0,0.6-0.6,1.1-0.5  c0.6,0,0.7,1.1,1.6,1.1c0-5.7,0-11.3,0-17c0-0.6,0.3-2.5,0-3C141.8,51.3,141.8,51.3,141.7,51.2z M120.4,65.8c-1.3,0.1-2.5,2.4-4,0.7  c1.2,1,4.5-2.8,4.8,0C121.1,66.2,120.8,65.8,120.4,65.8z M140.2,68.5c-0.6,1.2-1.6,4-2.4,0.8c0.7,3,2.5-4,3.3,0  C141.1,69.2,140.4,68.1,140.2,68.5z" />
<path class="st1" d="M141.8,76c-0.9-0.2-0.6,0.1-1.4,0.1c-0.7,0-1.4-0.2-2.2-0.3c-0.7-0.1-1.4,0.4-2.1,0.4c-0.7,0-1.3-0.8-2.1-0.9  c-1-0.1-1.9,0.6-2.9,0.5c-0.8-0.1-1.5-0.8-2.3-1c-0.7-0.2-1.5,0-2.3-0.2c-0.7-0.2-1.2-0.5-1.9-0.6c1.7,2.6,3.4,5.2,5.1,7.9  c0.7,1.1,1.5,2.9,2.5,3.8c0.7,0.6,0.7,0.5,1.9,0.5c2,0,4,0,5.9,0c1.5,0,1.3,0.3,1.7-0.7C142.3,84.5,142.2,76.1,141.8,76z" />
<path class="st1" d="M64.1,76.5c-0.3,0.1-0.9-0.6-1.3-0.7c-0.8-0.2-1.2,0-1.9,0.1c-1,0.1-2,0.2-3,0.1c-0.3,0-0.5-0.6-0.8-0.7  c-0.3,0.2-0.6,0.3-0.9,0.4c-0.4,0-0.7-0.2-0.8-0.5c-0.6,0.1-1,0.8-1.6,1.1c-2.2,1.4-4.9,1.8-7.4,1.2c-2.5-0.7-3.6-2.2-5.4-3.8  c-1.4-1.3-0.1-0.3-1.6-0.8c-0.5-0.2-1-0.3-1.5-0.5c-1.3-0.4-2.1-0.4-3.5-0.7c-0.4-0.3-0.8-0.5-1.2-0.7c-0.3,0.1-0.6,0.1-0.8,0.2  c-0.7-0.3-1.5-1-2.3-1.1c0.5,8.4,7.4,15.8,15.8,17c8.4,1.1,16.4-3.5,19.8-11.2C65.2,76,64.7,76.3,64.1,76.5z" />
<linearGradient id="SVGID_3_" gradientUnits="userSpaceOnUse" x1="48.7887" y1="71.1274" x2="48.7887" y2="50.2883">
	<stop offset="0.2086" style="stop-color:#2EA3FF" />
	<stop offset="0.5528" style="stop-color:#34D0CD" />
</linearGradient>
<path class="st3" d="M57.7,68.7c0,0.8-0.1,1.5-0.3,2.3c1.4,0.4,0.6-0.3,1.7-0.4c1.1-0.1,0.7-0.1,2,0c0.6,0.1,0.9,0.4,1.6,0.3  c0.4,0,0.8-0.5,1.2-0.6c1.8-0.2,2.5,1.2,3.2-0.8c0.6-1.7-0.3-4.5-0.8-6.1c-2.2-7.5-9.3-13-17.1-13.2c-7.9-0.2-15.3,4.7-18,12.2  c-0.2,0.6-1,2.3-0.8,2.9c0.1,0.1,1,0.5,1.3,0.6c1,0.6,1.9,0.4,2.9,0.7c0.6,0.2,0.9,0.7,1.8,0.6c1.8,0,2-1.4,3.3,0.7  C40.5,56.9,57.7,57.4,57.7,68.7z" />
<path class="st1" d="M36.1,71.7c-1.5-0.4-3.1-0.4-4.6-0.9c-1.5-0.5-3.8-0.9-4.8-2.2c-0.1,5.3-4.4,8.8-9.4,8.9c-1,0-3.6,0.5-4.4,0  c-0.7-0.4-0.5-0.3-0.5-1.5c0-3.1,0.3-6.4,0-9.5c-0.2-1.6,0.3-1.7-1.9-1.6c-1.1,0-2.1,0.1-3.1,0.2c-0.8,0-1.4,0.1-2.2,0.2  c-0.7,0.1-1.3-0.3-2-0.3c0,4.2,0,8.4,0,12.5c0,2.4-0.1,4.9,0,7.3c0.1,1.6-0.3,1.2,1.1,1.5c2.4,0.5,5.3,0,7.7,0c2.2,0,4.4,0.1,6.6,0  c4.2-0.1,8-1.4,11.3-4c1.6-1.3,3.1-2.9,4.1-4.6C34.3,77,36.7,72,36.1,71.7z" />
<linearGradient id="SVGID_4_" gradientUnits="userSpaceOnUse" x1="19.6166" y1="67.4131" x2="19.6166" y2="50.9369">
	<stop offset="0.2086" style="stop-color:#2EA3FF" />
	<stop offset="0.5528" style="stop-color:#34D0CD" />
</linearGradient>
<path class="st4" d="M35.1,61.8c-2.8-6.1-8.4-10.3-15.2-10.7c-3.2-0.2-6.4,0-9.5,0c-1.4,0-6.5-0.7-7.2,0.3c-0.6,0.8,0,4.2,0,5.2  c0,1.4,0,2.8,0,4.2c0.3,0,1.1-0.8,1.6-0.9c0.3-0.1,0.6,0.5,0.8,0.4c0.2,0,0.9-0.4,1.1-0.4c0.6,0,0.9-0.1,1.6-0.1  c-0.7-0.1,1.3,0.6,0.9,0.5c1,0.3,2.2,0.2,3.3,0.6c-0.6-2.2,3.8-1.3,5.2-1.3c2.1,0.1,4.1,0.3,5.8,1.7c0.8,0.7,3.2,4.5,4.6,3.1  c-0.8-0.1-1.1-0.9-2-0.9c0.6-0.4,0.7,0,1.1,0.1c0.1,0,1.3,0.4,1.3,0.4c1,0.3,1.5,0.8,2.3,1.4c0.3,0.3,1.3,1,1.7,1.1  c0.6,0.1,1.1-0.3,1.6-0.2c0.8,0.2,1.1,1.4,2.2,1C36.2,65.5,35.8,63.6,35.1,61.8z" />
<path class="st5" d="M56.6,48.7l-2.1-4.7H41.8l-2.1,4.7H28.1l15.2-34.3H53l15.2,34.3H56.6z M48.2,26.9l-3.3,9.1h6.5L48.2,26.9z" />
<path class="st5" d="M18.9,49.8c-3.2,0-6.4-0.5-9.5-1.4c-1-0.3-5.3-1.2-5.6-2.1c-0.2-0.6,1.7-2.8,2-3.3c0.8-1.3,1.8-3.7,3.1-3.7  c1,0,2.7,1.3,3.7,1.6c1.1,0.4,2,0.6,3.1,0.7c2,0.2,4.2,0.4,6.2,0.2c1.9-0.2,4.3-1.3,3.1-3.7c-1-2-5-2.3-6.8-2.6  c-3.9-0.8-8.5-1.3-11.6-3.9c-3.6-3-3.8-8.8-1.4-12.6c5.4-8.9,21.8-6.9,29.3-2.3c-1,1.7-2.1,3.5-3.2,5.2c-0.2,0.4-1,2.2-1.5,2.3  c-0.3,0.1-2.9-1.2-3.2-1.3c-2.9-1-6.2-2-9.3-1.6c-2.9,0.4-4,3-1.1,4.4c2.6,1.2,5.9,1.4,8.7,2.1c6.3,1.7,12,5,10.9,12.5  C34.6,47.8,25.4,49.8,18.9,49.8" />
<path class="st5" d="M90.1,13.9c0,2.3-0.4,4.9,0,7.1c0.3,2.1,1.8,1.5,3.8,1.5c1,0,5.6-0.7,6.3,0c0.4,0.4,0,3.5,0,4.1  c0,5.8,0,11.6,0,17.4c0,0.8-0.5,4.2,0,4.8c0.6,0.6,4.8,0.1,5.7,0.1c1.3,0,3.3,0.5,3.8-0.5c0.7-1.2,0-4.6,0-6c0-5.7,0-11.4,0-17.1  c0-0.9-0.3-2.4,0.3-2.8c0.6-0.4,2.6,0,3.3,0c1.5,0,3,0,4.4,0c2.4,0,2.2-0.8,2.2-3.1c0-1,0.5-5-0.2-5.6c-0.8-0.6-4.5,0-5.5,0  c-3.3,0-6.6,0-9.9,0C99.6,13.9,94.8,13.9,90.1,13.9z" />
<path class="st5" d="M129,12.7c-17,0-24.9,22-11.9,32.8c13.1,10.9,33.4-1,30.1-17.8C145.5,19.1,137.7,12.7,129,12.7 M129,40  c-11.6,0-11.1-18.1,0.4-17.5C140.4,23.1,139.9,40,129,40" />
<path class="st6" d="M156.7,69.8c0.4-0.3,0.5-1,0.9-1.2c0.6-0.3,1.3,0.2,2,0.1c0.8-0.1,1.5-0.8,2.2-0.9c0.8-0.1,1.5,0.2,2.3,0.1  c0.7,0,1.3-0.5,2-0.6c0.8-0.1,1.5,0.1,2.3,0c0.8-0.1,3.2-0.4,3.4-1.2c-3.6,0-7.2,0-10.8,0c-0.7,0-3.8-0.5-4.4,0  C156.2,66.6,156.4,70,156.7,69.8z" />
<linearGradient id="SVGID_5_" gradientUnits="userSpaceOnUse" x1="153.0911" y1="71.3931" x2="153.0911" y2="50.3232">
	<stop offset="0.2086" style="stop-color:#2EA3FF" />
	<stop offset="0.5528" style="stop-color:#34D0CD" />
</linearGradient>
<path class="st7" d="M163,52c-12.6-5.9-27.7,4.4-26.2,18.4c1.2-0.6,1,0.9,1.9,0.8c0.5,0,0.8-1,1.3-1c0.6,0,0.7,0.8,1.2,1  c1.3,0.4,0.9-0.7,2-0.9c0.6-0.1,2.7,0.7,3.3,1c-2.4-8.1,6.8-15.6,14-10.4c1.2,0.9,0.9,1.1,2.1,0.8c0.8-0.2,1.9-1.3,2.6-1.8  c1.4-1,2.9-1.9,4.3-2.9C167.7,54.9,165.5,53.2,163,52z M140.2,68.5c-0.6,1.2-1.6,4-2.4,0.8c0.7,3,2.5-4,3.3,0  C141.1,69.2,140.4,68.1,140.2,68.5z" />
<polygon class="st5" points="85.4,48.7 73.2,30.1 73.2,48.7 63.9,48.7 63.9,13.9 73.2,13.9 85.4,32.7 85.4,13.9 94.7,13.9   94.7,48.8 " />
<path class="st1" d="M72.3,74.6c-0.8,0.1-1.5,0.6-2.3,0.7c-0.4,0.1-0.8-0.3-1.2-0.2c-0.4,0.1-0.7,0.5-1,0.6c-1,0.1-1.5-0.1-2.5,0.2  c-1.6,0.5-0.9,0.5-2.1,0c0,2.9-0.2,5.9,0,8.9c0.1,1.3-0.3,1,0.6,1.4c1.2,0.5,3.8,0,5.1,0c0.6,0,2.9,0.4,3.3,0c0.3-0.3,0-2.6,0-3  C72.4,82.4,72.2,74.6,72.3,74.6z" />
<path class="st1" d="M119.2,73.1c-1.5-1-2.8-0.3-4.4-1c-1.4-0.6-2.2-1.7-3.7-2c0,3.5,0,6.9,0,10.4c0,1.1-0.6,4,0,5  c0.5,0.8,1.3,0.5,2.5,0.5c1.6,0,4.7,0.6,6.2,0c1-0.4,0.6-0.7,0.6-2.1c0-3.6,0-7.2,0-10.8C120.1,73.4,119.7,73.4,119.2,73.1z" />
<path class="st8" d="M119.9,15.2c0,1.7,0.8,5.9-0.3,7c-1,1.1-5.3,0.3-6.8,0.3C114.6,19.5,117,17.2,119.9,15.2" />
<path class="st9" d="M160.4,46.2c-2.3,0-4.6,0.3-6.8,0.6c3.5-3.2,9.5-8.2,9.8-13.4c0.4-6.7-11.5-4.7-10.4,1.4  c1.3-2.1,6.4-6.2,7.7-1.9c1.1,3.5-3.3,8.1-5.4,10.3c-1.1,1.1-4.4,3.2-4.6,4.6c-0.3,1.8,0.9,1.6,2.2,1.4c3.5-0.4,7.6-1.3,10.9,0.4  C163.6,47.2,162.9,46.2,160.4,46.2" />
<path class="st9" d="M176.6,31.2c-3.3-4.5-9-0.6-11.1,2.8c-2.2,3.6-3.6,10.1-0.9,13.9c3.3,4.4,8.9,0.7,11.1-2.8  C178,41.4,179.3,35,176.6,31.2 M173.6,45c-1.5,2.9-5.3,5.1-7.1,1.2c-1.6-3.5-0.6-8.9,1.1-12.1c1.4-2.6,4.7-5,6.8-1.7  C176.6,35.7,175.3,41.7,173.6,45" />
<path class="st9" d="M185.9,46.2c-2.3,0-4.6,0.3-6.8,0.6c3.5-3.2,9.5-8.2,9.8-13.4c0.4-6.7-11.5-4.7-10.4,1.4  c1.3-2.1,6.4-6.2,7.7-1.9c1.1,3.5-3.3,8.1-5.4,10.3c-1.1,1.1-4.4,3.2-4.6,4.6c-0.3,1.8,0.9,1.6,2.2,1.4c3.5-0.4,7.6-1.3,10.9,0.4  C189.1,47.2,188.4,46.2,185.9,46.2" />
<path class="st9" d="M202.3,40.5c-0.7-0.8-2.5-0.7-3.5-0.6c0.3-1.4,0.5-2.9,0.8-4.3c0.2-0.9,1-3.2,0.2-4c-0.3-0.3-0.9-0.4-1.4-0.3  c-1,0.4-0.5,0.7-0.6,1.7c-0.1,1.7-0.6,3.4-0.9,5.1c-0.1,0.3-0.1,1.4-0.3,1.7c-0.7,0.7-5.4,0.8-6.5,1c2-3,4.7-6.8,5.6-10.3  c0.2-0.9,0.6-1.3-0.3-1.8c-2-1.1-2.5,2.9-2.8,3.9c-0.6,1.7-1.3,3.3-2.1,4.9c-0.5,1-2.8,3.6-2.1,4.8c0.9,1.6,6.3-0.1,7.8-0.2  c-0.2,1.3-0.5,2.6-0.7,4c-0.1,0.7-0.6,2.3-0.1,3c0.7,1.1,2.2,0.8,2.5-0.1c0.2-0.6-0.1-2.4,0-3.2c0.1-0.8,0.1-1.8,0.4-2.6  c0.5-1.2,0.1-1.1,1.6-0.9c1.1,0.1,2.2,0.4,3.2,1C203,42.4,203,41.1,202.3,40.5" />
<path class="st10" d="M150.8,7.9c0.3,0.1,0.5-0.1,0.6,0.3C151.2,8.3,151,8.2,150.8,7.9" />
<path class="st10" d="M151.3,8.5C151.3,8.3,151.5,8.3,151.3,8.5z" />
<path class="st11" d="M151.4,8.3C151.2,8.2,151.4,8.2,151.4,8.3" />
<path class="st10" d="M151.3,8.5C151,8.6,151,8.6,151.3,8.5z" />
<path class="st12" d="M167.1,67.2c1.4,0.1,3.9,0.2,4.7-1c-1.1,0-2.3,0-3.4,0c-1.5,0-2.2-0.5-2.3,1.1  C166.4,67.2,166.7,67.2,167.1,67.2z" />
<path class="st12" d="M64.2,70.4c3.6,1,3.2-1.4,2.8-4.4c-0.4-3.2-1.8-6-3.6-8.6c0,4.3,0,8.7,0,13C63.6,70.5,63.9,70.4,64.2,70.4z" />
<path class="st13" d="M141.8,76c-1.2-0.3-2.2,0.1-3.6-0.3c1,2.2,2.1,4.3,3.9,6C142.1,80.9,142.5,76.2,141.8,76z" />
<path class="st13" d="M171.3,72.1c-0.6-1-2.1,0.4-2.7,0.4c-1,0-1.3-0.1-2.3-0.8c0.6,4,2.6,7.7,5.5,10.6c0-1.8,0-3.6,0-5.4  c0-1.1,0.1-2.3,0-3.4C171.6,72.4,171.7,72.8,171.3,72.1z" />
<path class="st13" d="M64.1,76.5c-0.5,0.2-0.4-0.4-0.7-0.6c0,1.4,0,2.7,0,4.1c1-1.3,1.8-2.8,2.4-4.3C65.3,76,64.7,76.3,64.1,76.5z" />
<path class="st12" d="M30.2,47.5c4.7-2.6,7.2-8.8,4.4-13.8c-2.2,4.9-4.3,9.8-6.5,14.7C28.8,48.2,29.5,47.9,30.2,47.5" />
<path class="st12" d="M121.1,27c-0.8,2.2-2.5,4.1-3.8,6.1c-1-2-1.6-2.1,0.2-3.6C118.4,28.7,119.7,27.1,121.1,27z" />
<path class="st14" d="M64,39.3c0,2.6-0.3,5.4,0.1,8c0.2,1.4-0.3,0.8,0.8,1.2c1.1,0.4,3,0,4.3,0C67.4,45.5,65.7,42.4,64,39.3z" />
<path class="st15" d="M151.7,8.6c-0.7-2.8-6.5-2.2-8.6-1.8c-2.3,0.4-3,1.1-4.5,2.7c-0.5,0.5-1.5,1.7-2.2,1.9  c-0.8,0.4-1.9-0.1-2.6,0.5c2.1-2.1,0.4-4.3-1.2-6c-2.1-2.3-2.7-2.2-5.6-1.8c-1.5,0.2-2.5,0.4-3.7,1.1c-0.9,0.5-1.3,0.9-2.1,1.6  c-0.6,0.6-1.7,1-2.1,1.8c-0.9,2,1.1,4.5,0.9,5.9c-0.2,1.9-0.9,2.4,0.4,3.9c0.9,1.2,2.4,3,3.7,3.8c1.6,1,3.8,1.2,3.8,3.8  c-2.6-1.8-5.3-4.1-8.1-5.5c-1.1-0.6-2.6-0.9-3.8-0.8c-1.2,0-2.4,1.1-3.4,1.1c-1.5,0.1-3.2-1.7-4.7-1.5c-0.8,0.1-2,1.9-2.5,2.8  c-0.5,1-0.9,2.2-0.5,3.1c0.7,1.7,1.5,1.1,1.1,3.1c-0.3,1.5-0.4,1.5,0.1,3.1c0.2,0.7,0.3,1.4,0.8,2c2,1.9,5-0.7,7-0.8  c5.1-0.5,6.1-7.9,12.1-5.1c-0.6,0.8-2.6,2.2-3.5,2.7c-2,1.2-4.8,1.5-7,2.1c-1.9,0.5-2.5,2.2-4.6,3c-2.1,0.8-2.8,0.8-3,3.4  c-0.1,1.4,0.2,3.3,0.7,4.6c0.7,2.2-0.4,4,1.8,5.5c1.4,1,2.4,0.7,4.4,0.1c1.1-0.3,1.9-0.7,2.8-1.4c1-0.8,1.9-1.2,2.8-1.9  c1.5-1.2,1.3-2.8,1.8-4.4c0.4-1.2,1.4-2.4,1.7-3.9c0.3-1.5,0.6-3,0.4-4.4c-0.1-1-0.9-1.1,0.2-2.2c0.4-0.4,2.1-1.1,2.5-0.5  c0.3,0.5-0.6,1.5-0.6,1.9c-0.2,1.3,0.6,1.4,0.9,2.3c0.4,1,0.1,1.9,0.8,2.8c0.6,0.9,1.9,1.5,2.9,2.1c1.3,0.8,3.5,2.2,5.1,2.5  c0.8,0.2,1.9-0.3,2.8-0.3c1.5,0,2.7,0.6,4.3,0.2c2.7-0.6,1.7-2,1.7-4.4c0-2.4-0.3-4.8-0.3-7.2c0.1-5.9-7-7-11.7-6.1  c0.4-2.6,3.3-2.4,5-3.6c0.8-0.5,0.8-1.1,1.3-1.6c0.9-0.9,1.7-0.7,3-1.1c2.4-0.6,5.1-1.2,6.7-3.1C150.1,13.2,152.3,11,151.7,8.6z" />
<path class="st16" d="M121.8,19.3c1.3,0.9,2.6,1.8,3.9,2.7c0.9,0.6,1.7,1.2,2.4,2c0.1,0.2,0.7,1.5,0.9,1.6c0.8,0.4,1.8-0.8,2.3-1.2  c0.2-0.2,4.1-3.7,4.3-3.2c-0.4-1.3-3.7,0.7-4,0.7c-1.6,0,0.9-2.8,1.5-3.5c-1,0.7-3,1.7-3.4,2.9c0.8-2.8,0.8-5.1,0.2-7.9  c-0.2,2.3-0.2,4.3-1,6.4c-0.6-1.8-1.2-3.6-1.2-5.4c0-2.4,0.4-4.4-0.1-6.7c-0.1,2,0.3,4.9-0.8,6.7c-0.9-1.4-1.6-3.1-2.2-4.7  c-0.3,2.5,0.9,3.6,1.9,5.7c0.6,1.2,0.9,2.5,1.3,3.7c-2.4-0.6-3.4-3.4-5.9-4.1c1,0.8,1.9,1.6,2.7,2.6c0.3,0.3,2.5,2.5,2.5,2.7  c0,0.7-3.9-1.9-4.5-2.1c1.1,2.2,3,2.5,4.7,4.1C125.3,21.2,123.5,20.3,121.8,19.3z" />
<path class="st16" d="M133.9,18.7c0.5-1.7,1.2-3,2.3-4.4c0.8-1.1,3-3.8,2.6-5.2c-0.2,2.5-0.7,4.4-2.3,6.4c2.1-1.7,3.7-3.8,5.9-5.4  c-2,2.6-4.7,5-6.1,7.9c2.4-3,7.1-4.2,10.5-6c-2.7,2.5-5.9,3.7-9,5.6c2.6-0.8,5.3-1.3,7.7-2.8c-4.1,1.7-8.1,4-12.4,5.1  C133.3,19.6,133.6,19.2,133.9,18.7z" />
<path class="st16" d="M131.7,27.9c-0.8,0.8-2.5,1.8-3.2,0.5c0.1,1.4-1.4,1.7-1.3,3.1c0.1,1.7,1.8,0.2,2.2-0.8  c-0.8,2.9,1.4,4.5,3.4,6.1c-1.9-1.9-2.2-3.2-2.2-5.9c2.4,1.5,3.9,3.7,5.7,5.7c-0.8-1.1-1.7-2.3-2.3-3.5c-0.7-1.4-0.7-4.4,1.4-2  c1.4,1.5,1.4,4,2.3,5.7c0.8,1.6,2.2,2.5,3.7,3.5c-1.4-1.5-3.2-3.3-3.9-5.3c-1.3-3.7,1.7-1.5,2.2,0.9c2.4-2.5-1.8-5.3-3.2-6.8  c-0.7-0.7-2.1-2.3,0.3-2.3c1.4,0,2.7,2.4,3.2,3.4c0.9-2.9-1.7-4.7-4.1-5.3c-0.8-0.2-2.4-0.7-3.1-0.1  C131.8,25.7,132.5,27.1,131.7,27.9z" />
<path class="st16" d="M125,28.4c-1,0.7-2.3,1.2-3.4,1.7c-1.7,0.7-3.6,0.8-5.2,1.7c-1.8,1-3.5,2.8-5.3,4c0.9-0.2,1.8-0.5,2.6-0.9  c0.5-0.3,1.8-1.9,2.2-1.9c2-0.2,0.5,1.4-0.2,2c-2.6,2.3-3.1,4.4-3.7,7.7c1.4-4.9,3.5-8,8.3-9.8c-1.3,3.6-4.7,4.7-4.2,9  c0-3.7,2.7-5.5,5-8c-0.7,2.5,2.4,1.5,2.2-0.8c-0.1-1.2-0.7-1.4-0.4-2.5C123.1,29.8,124.3,29,125,28.4z" />
<path class="st17" d="M124.9,29c0.5,0,1-0.2,1.4-0.4c-0.3,0-0.6-0.2-0.8-0.4c0.2-0.2,0.4-0.3,0.6-0.4c-1.2-1.1-3.1-0.9-4.6-0.6  c1.6-1.6,3.1-1.1,4.8-0.2c-0.3-0.3-0.5-0.7-0.8-1.1c3.2,1.5,1.8-0.4,0.5-1.6c-2.2-2.1-4.3-4.2-6.5-6.4c-3.8-3.7-7.8-7-12.1-10.1  c1.7-2.3,19.6,15.8,21.4,17.5c0.4-1.4,0-2.9-0.2-4.3c0.1,0.2,1.4,2.6,1.5,2.4c0.6-0.9,0-2.8-0.2-3.8c0.5,1.3,1.8,3.4,1.2,4.8  c0.4-0.6,1.3-3.3,2.3-2.9c1.2,0.6-0.9,2.5-1,2.9c-0.6,1.5,0,3.3-2,4c-0.8,0.3-1.8-0.5-2.2-0.4c0.2-0.1,0.5,0.9,0.5,1  c-0.2,0.1-0.8,0.2-0.8,0.2c-0.2,0.1-1.5-0.1-1.9,0.1c-0.5,0.2-1,0.5-1.5,0.8c0,0,0,0,0,0C124.6,29.9,124.7,29.4,124.9,29z" />
<path class="st18" d="M101.4,7.1c0.7-0.6,0.9,0.3,1.6,0.4c0.7,0.1,1.5-0.2,2.2-0.3c-0.4-0.3-2.2-0.4-2.3-0.6  c-0.5-1.4,2.2-0.2,2.6-0.2c-0.8-0.8-1.8-2.3,0.3-1.8c0,0-0.7-1.2-0.7-1.1c0.1-0.3,0.1-1.6,1-0.8c0.2,0.2,0.6,2.2,0.9,2.8  c1.2-1.4,0.8,1.1,1.1,1.1c0.6,0,0.6-1.1,1.6-1.1c0.6,0,0.9,0.6,1,1.2c0.1,0.5-0.7,1.1-0.4,1.5c0.2,0.3,1.1-0.6,1.7,0  c0.4,0.5-0.4,1.1,0.1,1.6c0.8,0.7,1.1-0.7,1.7-0.4c0.6,0.3,0.2,1.9-0.5,2c-0.8,0.1-2-2.2-2.9-2.3c-0.4-0.1,1.5,1.7,1.6,1.8  c0.7,0.6,1.3,0.9,1.4,1.8c-0.6-0.1-1.7,0.5-2.2,0.2c-0.8-0.5,1.1-0.7,1.3-0.7c-0.7-0.6-1.4-0.3-1.9-0.5c-0.6-0.3-1.3-0.7-1.9-1.1  c-0.3-0.2-0.3-0.7-0.5-0.8c-0.1,0-0.9,0.2-0.9,0.3c-0.8-1.2,0.8-0.8,0.6-1.1c0.1,0.1-2.3,0.2-1.9-0.3c0.2-0.1,0.4-0.2,0.7-0.1  c-0.8-0.8-2.5-0.8-3.6-0.8C102.2,7.9,101,9.2,101.4,7.1z" />
<path class="st13" d="M36.1,71.7c-0.3-0.1-0.6,0.1-0.9,0.1c-0.9-0.1-1.2-0.6-2-0.8c-0.5-0.1-0.9,0.2-1.5,0c-0.6-0.2-1-0.9-1.7-1  c0.2,3.3,1.4,6.1,3,9C33.6,78.2,37.2,72.3,36.1,71.7z" />
<path class="st16" d="M126.8,26c-3.5-3.1-6.4-4.5-11-4.7c1.8,0.2,4.1,0.6,5.2,2.3c-4.9-0.4-8,1.2-11.6,4.5c3.2-2.9,6.3-3.3,10.5-3.5  c-1.7,1.4-3.4,1.9-5.3,2.9c-1.4,0.8-1.9,1.9-2.9,3.1c1.4-1.4,6.8-5.3,8.9-4.2c-0.9-0.5-3.5,3-3.9,3.8c2.8-2.6,5-4.4,8.9-3.6  c-0.5-0.3-1-0.5-1.4-0.8C125,25.9,125.9,26,126.8,26z" />
<g>
	<path class="st19" d="M18.2,75.4c-2.2-0.5-7.1,0.2-8.7,1.2c-1.6,1-5,3.4-5.2,5.6c-0.2,2.2,0.7,0.7,1.5,0c0.8-0.7,1.9-1.1,2.9-1.5   c2.4-1,3-1.6,4.2,0.8c0.3,0.7,2.1,5.3,3.1,4.5c0.6-0.5-0.9-4.5-0.9-5.5c0-3.5,2.2-2.4,4.8-2.7c0.4,0,3-0.3,3-0.9   C22.9,75.9,18.6,75.5,18.2,75.4z" />
	<path class="st20" d="M12.8,73.3c0.6-1.5,1.6-6.5,3.1-7.2c0,0-0.7,6.2-0.8,6.9C14.8,75.8,14,75.6,12.8,73.3z" />
	<path class="st15" d="M11.2,72.9c1.1-1.9,2.2-4.6,3.8-6.2c0.8-0.7,0.7-1.1,1-0.1c0.3,1.1-0.6,3.3-0.9,4.4c-0.2,0.9-0.7,2-0.1,2.8   c1.2,1.6,5,0.7,6.5,1.8c1.6,1.1,0.5,1.1-1.3,1.4c-1.2,0.2-3.9-0.4-4.8,0.2c-2.4,1.8,0.9,5.8,0.3,7.9c-0.3,1.2-0.5,0.8-1.3,0   c-1.1-1.2-1.5-3.3-2.2-4.7c-0.6-1.3-0.5-1.4-1.8-1.3c-1.3,0.1-3.7,1.3-4.7,2.1c-0.7,0.6-1.9,2.6-1.9,0.5c-0.1-1.7,2.2-3.4,3.4-4.2   c1.7-1.3,2.4-1.4,0.8-2.9C7,73.5,5,72.4,4.3,71C2.4,67.1,10.1,72.2,11.2,72.9z" />
	<path class="st21" d="M15.6,66.5c-1.1,2.8-2.3,5.7-3.4,8.5C15.2,74,15,69.2,15.6,66.5z" />
	<path class="st22" d="M12.4,75.8c1.6,0,3.2,0.1,4.8,0.1c0.7,0,4.1,0.6,4.6,0.3c-1.2,0.9-4.2,0.8-5.6,1   C14.6,77.4,12.9,78.1,12.4,75.8z" />
	<path class="st22" d="M11.8,76.7c-0.9,2.7,1.6,7.4,3.5,9.3C14.2,82.9,13,79.8,11.8,76.7z" />
	<path class="st21" d="M10.7,76.5c-1.7-0.7-1.9-0.4-3.4,0.8c-1.4,1.1-3.8,3.3-3.6,5.2c-0.1-0.4,2.4-3.2,2.9-3.6   C7.8,77.8,9.3,77.1,10.7,76.5z" />
	<path class="st21" d="M11.1,73.1c0.2,0.6,0.4,1.3,0.5,1.9c-1.2-0.9-2.5-1.7-3.7-2.6c-0.7-0.5-3.5-1.9-3.7-2.8   c-0.2-1,3.2,1.1,3.4,1.2C8.8,71.6,9.9,72.4,11.1,73.1z" />
</g>
<path class="st22" d="M15.5,66.1c-0.5,0.7-6.3,8.2-3.9,9C12.2,75.2,15.2,67,15.5,66.1z" />
<path class="st21" d="M14.6,74.1c-0.4,0.1-2.4,1.2-2.5,1.2c0.9,0.3,9.7,1.1,9.7,0.8C21.9,75.6,15.3,74.2,14.6,74.1z" />
<path class="st21" d="M12.2,75.9c-1.3,1.8,3.8,9,3.1,9.6c0.6-0.5-0.4-4.1-0.5-4.7c-0.1-0.6-0.1-1.3-0.4-1.8  C13.8,77.7,12.6,77.2,12.2,75.9z" />
<path class="st22" d="M10.8,76.9c-1.5,0.6-3,1.2-4.2,2.2c-0.4,0.4-2.8,3.4-2.8,3.4c0.6,0,1.4-1.2,1.8-1.6c1-0.9,2.1-1.1,3.3-1.5  c1-0.3,1.9-0.5,2.3-1.5C11.5,77.3,11.6,76.5,10.8,76.9z" />
<path class="st22" d="M4.1,69.8c-0.3,1.2,2.4,3.2,3.3,4c0.6,0.6,3.6,4.1,4,2.1C11.7,74.2,5.4,70.7,4.1,69.8z" />
<path class="st12" d="M35.2,67.2c0.4-0.1,0.8,0.3,1.2,0.1c-0.2-3.2-1.3-6.2-3.2-8.8c-0.8,1.4-3.3,4.8-2.8,6.4  c0.2,0.7,1.3,1.4,2.3,1.7c0.6,0.2,1-0.3,1.6-0.1C34.7,66.6,34.8,67.2,35.2,67.2z" />
<linearGradient id="SVGID_6_" gradientUnits="userSpaceOnUse" x1="6.6119" y1="60.2152" x2="8.3073" y2="60.2152">
	<stop offset="0.2086" style="stop-color:#2EA3FF" />
	<stop offset="0.5528" style="stop-color:#34D0CD" />
</linearGradient>
<path class="st23" d="M6.6,60.4c0.5-0.6,1.2-0.5,1.7,0.1C7.8,60.2,7.2,60.2,6.6,60.4z" />
<linearGradient id="SVGID_7_" gradientUnits="userSpaceOnUse" x1="37.2156" y1="67.5762" x2="39.1122" y2="67.5762">
	<stop offset="0.2086" style="stop-color:#2EA3FF" />
	<stop offset="0.5528" style="stop-color:#34D0CD" />
</linearGradient>
<path class="st24" d="M37.2,67.3c0.8-0.5,1.4,0,1.9,0.7C38.5,67.7,37.9,67.5,37.2,67.3z" />
<linearGradient id="SVGID_8_" gradientUnits="userSpaceOnUse" x1="77.4974" y1="68.4905" x2="77.4974" y2="67.5298">
	<stop offset="0.2086" style="stop-color:#2EA3FF" />
	<stop offset="0.5528" style="stop-color:#34D0CD" />
</linearGradient>
<path class="st25" d="M77.3,68.5c0.2,0,0.4-0.1,0.7-0.1c-0.1-0.1-0.7-1-0.9-0.9C77,67.7,77,68.6,77.3,68.5z" />
<linearGradient id="SVGID_9_" gradientUnits="userSpaceOnUse" x1="58.7673" y1="70.9678" x2="61.1526" y2="70.9678">
	<stop offset="0.2086" style="stop-color:#2EA3FF" />
	<stop offset="0.5528" style="stop-color:#34D0CD" />
</linearGradient>
<path class="st26" d="M58.9,70.9c0.7-0.5,1.6-0.2,2.2,0.3c-0.3,0-2.4-0.1-2.4,0.1C58.8,71.1,58.8,71,58.9,70.9z" />
<linearGradient id="SVGID_10_" gradientUnits="userSpaceOnUse" x1="78.2643" y1="69.6463" x2="81.3038" y2="69.6463">
	<stop offset="0.2086" style="stop-color:#2EA3FF" />
	<stop offset="0.5528" style="stop-color:#34D0CD" />
</linearGradient>
<path class="st27" d="M80.3,69.1c0.1,0,0.9-0.8,1-0.3c0.1,0.6-1.5,0.5-1.3,1c0.2,0.4,1-0.1,1.1,0.4c0.1,1.1-2.5,0.2-2.7-0.4  C77.8,68.4,79.5,69.4,80.3,69.1z" />
<path class="st1" d="M86.8,71.6c-1.9,0-4.1,1.9-6.1,2.1c-0.7,0-1.3-0.3-2.1-0.1c-1.3,0.3-1.4,0.6-3,0.1c1,1.7,3.7,8.6,6.2,6.7  c1.2-0.9,2.2-3.6,3-4.9C85.2,75,87.4,71.6,86.8,71.6z" />
<path class="st1" d="M97.1,70.4C95.8,71,95.2,70,94,70.2c-0.6,0.1-1.4,0.7-2.1,0.9c-0.7,0.2-1-0.4-1.8,0.1c-1.4,0.9-0.8,3.2-0.8,4.7  c0,2.7,0,5.4,0,8.2c0,1.9-0.4,1.9,1.4,2c1.5,0.1,6,0.7,7.3,0c0.8-0.5,0.5-2,0.5-3.2c0-4.4,0-8.9,0-13.3  C98.1,69.9,97.6,70.2,97.1,70.4z" />
<linearGradient id="SVGID_11_" gradientUnits="userSpaceOnUse" x1="104.832" y1="65.7219" x2="104.832" y2="51.2265">
	<stop offset="0.2086" style="stop-color:#2EA3FF" />
	<stop offset="0.5528" style="stop-color:#34D0CD" />
</linearGradient>
<path class="st28" d="M100.1,51.2c-0.3,0.6,0,2.9,0,3.5c0,3.6,0,7.2,0,10.8c0.1-0.6,0.7-2.9,1.7-2.5c1,0.4,0.6,1.3,1.8,1.4  c1.1,0.1,1.1-0.8,2.3-0.2c0.9,0.4,0.7,1,1.8,1.3c1.1,0.3,0.9-0.9,1.8,0.3c0-3.6,0-7.1,0-10.7c0-0.6,0.4-3.2,0-3.8H100.1z" />
<path class="st29" d="M107.2,69.9c-1.3,0.1-2.5-0.2-3.8-0.2c-1.3,0-1.9,0.6-3.2-0.3c0,3.9,0,7.8,0,11.8c0,0.7-0.5,4.3,0,4.8  c0.5,0.5,3.9,0.1,4.7,0.1c0.7,0,4.2,0.5,4.7,0c0.5-0.6,0-4.1,0-4.8c0-3.9,0-7.7,0-11.6C108.7,69.8,108,69.9,107.2,69.9z" />
<linearGradient id="SVGID_12_" gradientUnits="userSpaceOnUse" x1="100.6262" y1="64.6088" x2="101.9937" y2="64.6088">
	<stop offset="0.2086" style="stop-color:#2EA3FF" />
	<stop offset="0.5528" style="stop-color:#34D0CD" />
</linearGradient>
<path class="st30" d="M101.9,64.3c0.2-2.2-1.1,0.7-1.3,1.4C101.1,65.2,102.3,65.1,101.9,64.3z" />
<path class="st12" d="M138.3,61.6c-1.1,2.8-1.6,5.8-1.4,8.9c0.9-0.4,0.7,0.4,1.2,0.5c0.7,0.2,0.8-0.2,1.4-0.2c0.6,0,0.5-0.2,1.2,0  c0.6,0.1,0.5,1.2,1.4,0.8c0.4-0.2,0.1-3.5,0.1-3.9c0-4,0-7.9,0-11.9C140.4,57.4,139.1,59.4,138.3,61.6z M140.2,68.5  c-0.6,1.2-1.6,4-2.4,0.8c0.7,3,2.5-4,3.3,0C141.1,69.2,140.4,68.1,140.2,68.5z" />
<rect x="89.7" y="14" class="st12" width="5.1" height="8.3" />
<g>
	<linearGradient id="SVGID_13_" gradientUnits="userSpaceOnUse" x1="73.108" y1="69.4388" x2="73.108" y2="69.386">
		<stop offset="0.2086" style="stop-color:#2EA3FF" />
		<stop offset="0.5528" style="stop-color:#34D0CD" />
	</linearGradient>
	<path class="st31" d="M73.1,69.4C73.1,69.4,73.1,69.4,73.1,69.4C73.1,69.4,73.1,69.4,73.1,69.4z" />
	<linearGradient id="SVGID_14_" gradientUnits="userSpaceOnUse" x1="80.8787" y1="70.6452" x2="80.8787" y2="51.2265">
		<stop offset="0.2086" style="stop-color:#2EA3FF" />
		<stop offset="0.5528" style="stop-color:#34D0CD" />
	</linearGradient>
	<path class="st32" d="M90.1,51.2c-0.4,0.1-0.7,0.3-1,0.5c-1,0.9-1.8,2.9-2.5,4c-1.9,3.2-3.9,6.4-5.8,9.5c-2.1-3.5-4.2-7-6.4-10.5   c-0.7-1.1-1.3-3-2.6-3.6h-8.3c-0.1,0.1-0.2,0.4-0.3,1c-0.4,1.9,0,4.5,0,6.4c0,4,0,7.9,0,11.9c0.3,0,0.6,0,0.9-0.1   c1.9,0.5,2.8-0.1,4.5-0.3c0.5-0.1,1.2,0.1,1.8,0.1c0.5-0.1,1.3-0.3,1.9-0.4c0-0.6,0-1.1,0-1.7c0,0.2,0.5,1,0.7,1.3   c0.2-0.1,2.6-0.4,2.2-0.3c0.3,0.2,0.6,0.2,0.9,0c0.2-0.2,0.4-0.5,0.4-0.8c0.4-0.2-0.1-0.9,0.6-1c0.3-0.1,1.5,0.9,2,1   c0.6,0.2,1.1,0.2,1.7,0.1c1.7-0.2,2.5-1.5,4.3-1.5c1.8,0,2,0.6,3.6-0.8c0.8-0.7,0.2-0.6,1.2-0.9c0.3,0.2,0.6,0.5,0.8,0.9   c0.4,0.1,0.6,0,0.8-0.4c-0.4,0,2-0.2,1.7-0.2c0.3,0.2,0.6,0.2,1,0.1c0.3-0.2,0.5-0.5,0.5-0.8c1.3-0.2,2.7,1,3.9,0.8   c0-3.7,0-7.5,0-11.2c0-0.5,0.3-2.7,0-3.2H90.1z" />
</g>
<g>
</g>
<g>
</g>
<g>
</g>
<g>
</g>
<g>
</g>
<g>
</g>
</svg>